<svg xmlns:dc="http://purl.org/dc/elements/1.1/" xmlns:cc="http://creativecommons.org/ns#" xmlns:rdf="http://www.w3.org/1999/02/22-rdf-syntax-ns#" xmlns:svg="http://www.w3.org/2000/svg" xmlns="http://www.w3.org/2000/svg" xmlns:sodipodi="http://sodipodi.sourceforge.net/DTD/sodipodi-0.dtd" xmlns:inkscape="http://www.inkscape.org/namespaces/inkscape" version="1.1" x="0px" y="0px" viewBox="0 0 100 125"><g transform="translate(0,-952.36218)"><path style="font-size:medium;font-style:normal;font-variant:normal;font-weight:normal;font-stretch:normal;text-indent:0;text-align:start;text-decoration:none;line-height:normal;letter-spacing:normal;word-spacing:normal;text-transform:none;direction:ltr;block-progression:tb;writing-mode:lr-tb;text-anchor:start;baseline-shift:baseline;opacity:1;color:#000000;fill:#fd79a8;fill-opacity:1;stroke:none;stroke-width:4;marker:none;visibility:visible;display:inline;overflow:visible;enable-background:accumulate;font-family:Sans;-inkscape-font-specification:Sans" d="M 28 7 C 17.63451 7 4 16.12267 4 34.53125 C 4 44.71838 10.552977 54.3385 19.3125 62.875 C 28.072023 71.4115 39.179037 78.92785 48.96875 84.71875 A 2.0002 2.0002 0 0 0 51.03125 84.71875 C 60.820964 78.92785 71.927977 71.4115 80.6875 62.875 C 89.447023 54.3385 96 44.71838 96 34.53125 C 96 16.12267 82.36549 7 72 7 C 61.28298 7 54.355347 11.89107 50 17.71875 C 45.644653 11.89107 38.71702 7 28 7 z M 28 11 C 38.795457 11 44.656356 16.075 48.28125 22.03125 A 2.0002 2.0002 0 0 0 51.71875 22.03125 C 55.343644 16.075 61.204543 11 72 11 C 80.014306 11 92 18.08269 92 34.53125 C 92 42.95701 86.262536 51.826 77.875 60 C 69.775105 67.8936 59.371919 75.016 50 80.625 C 40.628082 75.016 30.224896 67.8936 22.125 60 C 13.737464 51.826 8 42.95701 8 34.53125 C 8 18.08269 19.985694 11 28 11 z " transform="translate(0,952.36218)"/></g></svg>