<svg xmlns="http://www.w3.org/2000/svg" data-name="Livello 1" viewBox="0 0 48 60" x="0px" y="0px" fill="#ff7675"><path d="M42.68,7.72h-9.9V7.25A6.29,6.29,0,0,0,26.5,1h-5a6.29,6.29,0,0,0-6.28,6.28v.47H5.32A1.24,1.24,0,0,0,4.09,9V10.7a1.23,1.23,0,0,0,1.23,1.23H42.68a1.23,1.23,0,0,0,1.23-1.23V9A1.24,1.24,0,0,0,42.68,7.72ZM19,7.25A2.54,2.54,0,0,1,21.5,4.72h5A2.54,2.54,0,0,1,29,7.25v.47H19Z"/><path d="M7.7,15.22V40.41a5.07,5.07,0,0,0,5.07,5.07H35.23a5.07,5.07,0,0,0,5.07-5.07V15.22ZM20.64,35.77a1.5,1.5,0,0,1-3,0V23.93a1.5,1.5,0,0,1,3,0Zm9.72,0a1.5,1.5,0,0,1-3,0V23.93a1.5,1.5,0,0,1,3,0Z"/></svg>