<svg xmlns="http://www.w3.org/2000/svg" xmlns:xlink="http://www.w3.org/1999/xlink" version="1.1" x="0px" y="0px" viewBox="0 0 100 125" fill="#AA8DCC" enable-background="new 0 0 100 100" xml:space="preserve"><g><g><path d="M54.678,73.04h15.5c0.829,0,1.5-0.672,1.5-1.5V59.5c0-0.828-0.671-1.5-1.5-1.5h-15.5c-0.829,0-1.5,0.672-1.5,1.5v12.04    C53.178,72.368,53.849,73.04,54.678,73.04z M56.178,61h12.5v9.04h-12.5V61z"/><path d="M50.993,21.893c-0.566-0.501-1.419-0.501-1.985,0L19.429,48.007c-0.323,0.285-0.507,0.694-0.507,1.125V85.54    c0,0.828,0.671,1.5,1.5,1.5h9.828h15.5h33.828c0.829,0,1.5-0.672,1.5-1.5V49.132c0-0.43-0.185-0.84-0.507-1.125L50.993,21.893z     M44.25,84.04h-12.5V61h12.5V84.04z M78.078,84.04H47.25V59.5c0-0.828-0.671-1.5-1.5-1.5h-15.5c-0.829,0-1.5,0.672-1.5,1.5v24.54    h-6.828V49.809L50,25.019l28.078,24.79V84.04z"/><path d="M89.347,47.195L50.994,13.335c-0.015-0.013-0.032-0.021-0.046-0.034c-0.042-0.034-0.084-0.063-0.128-0.092    c-0.04-0.026-0.08-0.052-0.122-0.074c-0.044-0.023-0.089-0.042-0.135-0.061c-0.045-0.018-0.089-0.036-0.136-0.05    s-0.093-0.023-0.141-0.032c-0.047-0.009-0.093-0.018-0.141-0.022c-0.049-0.005-0.098-0.005-0.147-0.005    c-0.046,0-0.092,0-0.138,0.004c-0.05,0.005-0.099,0.014-0.149,0.024c-0.045,0.009-0.089,0.018-0.133,0.031    c-0.048,0.014-0.094,0.032-0.141,0.051c-0.045,0.018-0.089,0.037-0.132,0.06c-0.042,0.022-0.082,0.048-0.122,0.074    c-0.044,0.029-0.087,0.059-0.128,0.093c-0.015,0.012-0.032,0.021-0.046,0.033L10.653,47.195c-0.621,0.548-0.68,1.496-0.132,2.117    c0.296,0.336,0.71,0.507,1.125,0.507c0.353,0,0.707-0.124,0.992-0.375l37.363-32.983l37.361,32.983    c0.285,0.252,0.639,0.375,0.992,0.375c0.415,0,0.829-0.171,1.125-0.507C90.027,48.691,89.968,47.743,89.347,47.195z"/></g></g></svg>