<svg xmlns="http://www.w3.org/2000/svg" data-name="Layer 1" viewBox="0 0 48 60" x="0px" y="0px" fill="#AA8DCC"><path d="M33.32,28.05a1,1,0,0,0-1.27.63A8.34,8.34,0,0,1,24,34a8.34,8.34,0,0,1-8-5.32,1,1,0,0,0-1.9.64A10.5,10.5,0,0,0,24,36a10.5,10.5,0,0,0,10-6.68A1,1,0,0,0,33.32,28.05Z"/><path d="M24,3A21,21,0,1,0,45,24,21,21,0,0,0,24,3Zm0,40A19,19,0,1,1,43,24,19,19,0,0,1,24,43Z"/><path d="M16.5,17c1.38,0,2.5,1.64,2.5,3a1,1,0,0,0,2,0c0-2.36-1.92-5-4.5-5S12,17.64,12,20a1,1,0,0,0,2,0C14,18.64,15.12,17,16.5,17Z"/><path d="M31.5,15c-2.58,0-4.5,2.64-4.5,5a1,1,0,0,0,2,0c0-1.36,1.12-3,2.5-3S34,18.64,34,20a1,1,0,0,0,2,0C36,17.64,34.08,15,31.5,15Z"/></svg>