<?xml version="1.0" encoding="UTF-8" standalone="no"?>
<!DOCTYPE svg PUBLIC "-//W3C//DTD SVG 1.1//EN" "http://www.w3.org/Graphics/SVG/1.1/DTD/svg11.dtd">
<svg version="1.1" xmlns="http://www.w3.org/2000/svg" xmlns:xlink="http://www.w3.org/1999/xlink" preserveAspectRatio="xMidYMid meet" viewBox="29.5 69.5 581 553.5" width="560" height="540"><defs><path d="M600 220L320 80L40 220" id="ertn7vqzl"></path><path d="M115 214L316 114L315 254C278.33 247.5 260 260.83 260 294C260 327.17 278.33 340.5 315 334L315 414L258 414C261 450 247 468 216 468C185 468 171.67 450 176 414L115 414L115 214Z" id="a8ikQfCjo"></path><path d="M524 214L524 414L484.43 414C488.64 372.93 473.83 352.93 440 354C406.17 355.07 391.17 375.07 395 414L326.43 414L326 323.59C287.76 333.47 268.76 323.6 269 294C269.25 264.4 288.25 254.64 326 264.74L325 114L524 214Z" id="a3fHl8iUju"></path><path d="M248 619.81L116 620L116 421L166.26 421C164.64 458.41 181.55 476.83 217 476.29C252.45 475.74 269.11 457.31 267 421L314.38 420.71L314.18 478.71C352.39 475.19 371.43 488.93 371.32 519.93C371.21 550.93 352.06 563.52 313.88 557.71L313.66 619.71L248 619.81Z" id="awodqtXSn"></path><path d="M525 619L325 619L325 566C362.33 569.17 381 553.83 381 520C381 486.17 362.33 469.5 325 470L325 422L405 422C397.69 382.67 409.36 363 440 363C470.64 363 482.64 382.67 476 422L525 422L525 619Z" id="a18GmFd0qC"></path></defs><g><g><g><use xlink:href="#ertn7vqzl" opacity="1" fill-opacity="0" stroke="#b892db" stroke-width="21" stroke-opacity="1"></use></g></g><g><use xlink:href="#a8ikQfCjo" opacity="1" fill="#b6dc92" fill-opacity="1"></use></g><g><use xlink:href="#a3fHl8iUju" opacity="1" fill="#b6dc92" fill-opacity="1"></use></g><g><use xlink:href="#awodqtXSn" opacity="1" fill="#b6dc92" fill-opacity="1"></use></g><g><use xlink:href="#a18GmFd0qC" opacity="1" fill="#b892db" fill-opacity="1"></use><g><use xlink:href="#a18GmFd0qC" opacity="1" fill-opacity="0" stroke="#b5e5bd" stroke-width="0" stroke-opacity="1"></use></g></g></g></svg>